<mxfile host="app.diagrams.net" modified="2022-12-14T09:00:28.931Z" agent="5.0 (Windows NT 10.0; Win64; x64) AppleWebKit/537.36 (KHTML, like Gecko) Chrome/108.0.0.0 Safari/537.36" etag="islEnsuOspTB4dmd4Ssf" version="20.6.0" type="github">
  <diagram id="Sigs5kYWE993VqaOuRhd" name="Page-2">
    <mxGraphModel dx="2249" dy="1941" grid="1" gridSize="10" guides="1" tooltips="1" connect="1" arrows="1" fold="1" page="1" pageScale="1" pageWidth="827" pageHeight="1169" math="0" shadow="0">
      <root>
        <mxCell id="0" />
        <mxCell id="1" parent="0" />
        <mxCell id="9wKzAW_y3rJNhs8JTTEz-51" value="Insurer NOT liable" style="swimlane;whiteSpace=wrap;html=1;rounded=0;shadow=0;sketch=0;" vertex="1" parent="1">
          <mxGeometry x="-90" y="-60" width="930" height="810" as="geometry">
            <mxRectangle x="-90" y="-60" width="140" height="30" as="alternateBounds" />
          </mxGeometry>
        </mxCell>
        <mxCell id="RzD2ikqAWbtTkijuTP2i-2" value="&lt;p class=&quot;MsoNormal&quot;&gt;&lt;span style=&quot;font-size: 8pt;&quot;&gt;[Insurer | &lt;b&gt;Company’s name &lt;/b&gt;| We]&lt;/span&gt;&lt;/p&gt;" style="rounded=1;whiteSpace=wrap;html=1;fontSize=12;glass=0;strokeWidth=1;shadow=0;" vertex="1" parent="9wKzAW_y3rJNhs8JTTEz-51">
          <mxGeometry x="50" y="105" width="120" height="40" as="geometry" />
        </mxCell>
        <mxCell id="RzD2ikqAWbtTkijuTP2i-6" value="&lt;p class=&quot;MsoNormal&quot;&gt;&lt;span style=&quot;font-size: 8pt;&quot;&gt;[benefit |&lt;br/&gt;indemnity | compensation | amount paid]&lt;/span&gt;&lt;/p&gt;" style="rounded=1;whiteSpace=wrap;html=1;fontSize=12;glass=0;strokeWidth=1;shadow=0;" vertex="1" parent="9wKzAW_y3rJNhs8JTTEz-51">
          <mxGeometry x="630" y="80" width="150" height="50" as="geometry" />
        </mxCell>
        <mxCell id="9wKzAW_y3rJNhs8JTTEz-11" style="edgeStyle=orthogonalEdgeStyle;rounded=0;orthogonalLoop=1;jettySize=auto;html=1;entryX=0;entryY=0.5;entryDx=0;entryDy=0;exitX=1;exitY=0.5;exitDx=0;exitDy=0;" edge="1" parent="9wKzAW_y3rJNhs8JTTEz-51" source="9wKzAW_y3rJNhs8JTTEz-44" target="RzD2ikqAWbtTkijuTP2i-6">
          <mxGeometry relative="1" as="geometry">
            <mxPoint x="570" y="115" as="sourcePoint" />
          </mxGeometry>
        </mxCell>
        <mxCell id="9wKzAW_y3rJNhs8JTTEz-19" style="edgeStyle=orthogonalEdgeStyle;rounded=0;orthogonalLoop=1;jettySize=auto;html=1;entryX=0;entryY=0.5;entryDx=0;entryDy=0;" edge="1" parent="9wKzAW_y3rJNhs8JTTEz-51" target="9wKzAW_y3rJNhs8JTTEz-35">
          <mxGeometry relative="1" as="geometry">
            <mxPoint x="570" y="255" as="sourcePoint" />
            <mxPoint x="630" y="235" as="targetPoint" />
          </mxGeometry>
        </mxCell>
        <mxCell id="9wKzAW_y3rJNhs8JTTEz-23" value="are not covered" style="rounded=1;whiteSpace=wrap;html=1;fontSize=12;glass=0;strokeWidth=1;shadow=0;" vertex="1" parent="9wKzAW_y3rJNhs8JTTEz-51">
          <mxGeometry x="340" y="400" width="120" height="40" as="geometry" />
        </mxCell>
        <mxCell id="9wKzAW_y3rJNhs8JTTEz-25" value="&lt;p class=&quot;MsoNormal&quot;&gt;&lt;span style=&quot;font-size: 8pt;&quot;&gt;[Insurance?,&lt;br/&gt;[cover | policy]]&lt;/span&gt;&lt;/p&gt;" style="rounded=1;whiteSpace=wrap;html=1;fontSize=12;glass=0;strokeWidth=1;shadow=0;" vertex="1" parent="9wKzAW_y3rJNhs8JTTEz-51">
          <mxGeometry x="50" y="495" width="120" height="40" as="geometry" />
        </mxCell>
        <mxCell id="9wKzAW_y3rJNhs8JTTEz-26" value="&lt;p class=&quot;MsoNormal&quot;&gt;&lt;span style=&quot;font-size: 8pt;&quot;&gt;[[shall not | does&lt;br/&gt;not], [apply to | cover | include]]&lt;/span&gt;&lt;/p&gt;" style="rounded=1;whiteSpace=wrap;html=1;fontSize=12;glass=0;strokeWidth=1;shadow=0;" vertex="1" parent="9wKzAW_y3rJNhs8JTTEz-51">
          <mxGeometry x="340" y="490" width="120" height="50" as="geometry" />
        </mxCell>
        <mxCell id="9wKzAW_y3rJNhs8JTTEz-28" style="edgeStyle=orthogonalEdgeStyle;rounded=0;orthogonalLoop=1;jettySize=auto;html=1;entryX=0;entryY=0.5;entryDx=0;entryDy=0;" edge="1" parent="9wKzAW_y3rJNhs8JTTEz-51" source="9wKzAW_y3rJNhs8JTTEz-25" target="9wKzAW_y3rJNhs8JTTEz-26">
          <mxGeometry relative="1" as="geometry" />
        </mxCell>
        <mxCell id="9wKzAW_y3rJNhs8JTTEz-27" value="&lt;p class=&quot;MsoNormal&quot;&gt;&lt;span style=&quot;font-size: 8pt;&quot;&gt;[[prior]?, [claims&lt;br/&gt;| events | damages | losses]]&lt;/span&gt;&lt;/p&gt;" style="rounded=1;whiteSpace=wrap;html=1;fontSize=12;glass=0;strokeWidth=1;shadow=0;" vertex="1" parent="9wKzAW_y3rJNhs8JTTEz-51">
          <mxGeometry x="630" y="490" width="180" height="50" as="geometry" />
        </mxCell>
        <mxCell id="9wKzAW_y3rJNhs8JTTEz-29" style="edgeStyle=orthogonalEdgeStyle;rounded=0;orthogonalLoop=1;jettySize=auto;html=1;" edge="1" parent="9wKzAW_y3rJNhs8JTTEz-51" source="9wKzAW_y3rJNhs8JTTEz-26" target="9wKzAW_y3rJNhs8JTTEz-27">
          <mxGeometry relative="1" as="geometry" />
        </mxCell>
        <mxCell id="9wKzAW_y3rJNhs8JTTEz-31" value="&lt;p class=&quot;MsoNormal&quot;&gt;&lt;span style=&quot;font-size: 8pt;&quot;&gt;[[Insurer’s | &lt;b&gt;Company’s name’s &lt;/b&gt;| Our], liability]&lt;/span&gt;&lt;/p&gt;" style="rounded=1;whiteSpace=wrap;html=1;fontSize=12;glass=0;strokeWidth=1;shadow=0;" vertex="1" parent="9wKzAW_y3rJNhs8JTTEz-51">
          <mxGeometry x="50" y="590" width="120" height="40" as="geometry" />
        </mxCell>
        <mxCell id="9wKzAW_y3rJNhs8JTTEz-32" value="[[shall be | will be | may be], limited]" style="rounded=1;whiteSpace=wrap;html=1;fontSize=12;glass=0;strokeWidth=1;shadow=0;" vertex="1" parent="9wKzAW_y3rJNhs8JTTEz-51">
          <mxGeometry x="340" y="590" width="120" height="40" as="geometry" />
        </mxCell>
        <mxCell id="9wKzAW_y3rJNhs8JTTEz-46" style="edgeStyle=orthogonalEdgeStyle;rounded=0;orthogonalLoop=1;jettySize=auto;html=1;entryX=0;entryY=0.5;entryDx=0;entryDy=0;elbow=vertical;" edge="1" parent="9wKzAW_y3rJNhs8JTTEz-51" source="9wKzAW_y3rJNhs8JTTEz-31" target="9wKzAW_y3rJNhs8JTTEz-32">
          <mxGeometry relative="1" as="geometry" />
        </mxCell>
        <mxCell id="9wKzAW_y3rJNhs8JTTEz-34" value="&lt;p class=&quot;MsoNormal&quot;&gt;&lt;span style=&quot;font-size: 8pt;&quot;&gt;[[cover | payment&lt;br/&gt;| services | benefit], for?, [claims | events | damages | losses]]&lt;/span&gt;&lt;/p&gt;" style="rounded=1;whiteSpace=wrap;html=1;fontSize=12;glass=0;strokeWidth=1;shadow=0;" vertex="1" parent="9wKzAW_y3rJNhs8JTTEz-51">
          <mxGeometry x="630" y="145" width="180" height="50" as="geometry" />
        </mxCell>
        <mxCell id="9wKzAW_y3rJNhs8JTTEz-35" value="claims | events | damages | losses | proceedings | costs | expenses" style="rounded=1;whiteSpace=wrap;html=1;fontSize=12;glass=0;strokeWidth=1;shadow=0;" vertex="1" parent="9wKzAW_y3rJNhs8JTTEz-51">
          <mxGeometry x="630" y="230" width="180" height="50" as="geometry" />
        </mxCell>
        <mxCell id="9wKzAW_y3rJNhs8JTTEz-37" value="&lt;p class=&quot;MsoNormal&quot;&gt;&lt;span style=&quot;font-size: 8pt;&quot;&gt;[Prior?, [claims |&lt;br/&gt;events | damages | losses]]&lt;/span&gt;&lt;/p&gt;" style="rounded=1;whiteSpace=wrap;html=1;fontSize=12;glass=0;strokeWidth=1;shadow=0;" vertex="1" parent="9wKzAW_y3rJNhs8JTTEz-51">
          <mxGeometry x="50" y="395" width="180" height="50" as="geometry" />
        </mxCell>
        <mxCell id="9wKzAW_y3rJNhs8JTTEz-24" style="edgeStyle=orthogonalEdgeStyle;rounded=0;orthogonalLoop=1;jettySize=auto;html=1;entryX=0;entryY=0.5;entryDx=0;entryDy=0;exitX=1;exitY=0.5;exitDx=0;exitDy=0;" edge="1" parent="9wKzAW_y3rJNhs8JTTEz-51" source="9wKzAW_y3rJNhs8JTTEz-37" target="9wKzAW_y3rJNhs8JTTEz-23">
          <mxGeometry relative="1" as="geometry">
            <mxPoint x="290" y="405" as="sourcePoint" />
          </mxGeometry>
        </mxCell>
        <mxCell id="9wKzAW_y3rJNhs8JTTEz-38" value="&lt;p class=&quot;MsoNormal&quot;&gt;&lt;span style=&quot;font-size: 8pt;&quot;&gt;[[shall not be |&lt;br/&gt;will not be | shall not | will not | is not], [liable | provide | indemnify&lt;br/&gt;|&amp;nbsp; make]]&lt;/span&gt;&lt;/p&gt;" style="rounded=1;whiteSpace=wrap;html=1;shadow=0;sketch=0;" vertex="1" parent="9wKzAW_y3rJNhs8JTTEz-51">
          <mxGeometry x="340" y="140" width="210" height="60" as="geometry" />
        </mxCell>
        <mxCell id="9wKzAW_y3rJNhs8JTTEz-43" style="edgeStyle=orthogonalEdgeStyle;rounded=0;orthogonalLoop=1;jettySize=auto;html=1;entryX=0;entryY=0.5;entryDx=0;entryDy=0;elbow=vertical;" edge="1" parent="9wKzAW_y3rJNhs8JTTEz-51" source="RzD2ikqAWbtTkijuTP2i-2" target="9wKzAW_y3rJNhs8JTTEz-38">
          <mxGeometry relative="1" as="geometry" />
        </mxCell>
        <mxCell id="9wKzAW_y3rJNhs8JTTEz-13" style="edgeStyle=orthogonalEdgeStyle;rounded=0;orthogonalLoop=1;jettySize=auto;html=1;entryX=0;entryY=0.5;entryDx=0;entryDy=0;exitX=1;exitY=0.5;exitDx=0;exitDy=0;" edge="1" parent="9wKzAW_y3rJNhs8JTTEz-51" source="9wKzAW_y3rJNhs8JTTEz-38" target="9wKzAW_y3rJNhs8JTTEz-34">
          <mxGeometry relative="1" as="geometry">
            <mxPoint x="570" y="175" as="sourcePoint" />
            <mxPoint x="630" y="175" as="targetPoint" />
          </mxGeometry>
        </mxCell>
        <mxCell id="9wKzAW_y3rJNhs8JTTEz-39" value="&lt;p class=&quot;MsoNormal&quot;&gt;&lt;span style=&quot;font-size: 8pt;&quot;&gt;[[shall be | will&lt;br/&gt;be | may be | is | may | will], [released from | free from | [[entitled to]?,&lt;br/&gt;[avoid | reduce | refuse to pay]]]]&lt;/span&gt;&lt;/p&gt;" style="rounded=1;whiteSpace=wrap;html=1;shadow=0;sketch=0;" vertex="1" parent="9wKzAW_y3rJNhs8JTTEz-51">
          <mxGeometry x="340" y="225" width="240" height="60" as="geometry" />
        </mxCell>
        <mxCell id="9wKzAW_y3rJNhs8JTTEz-42" style="edgeStyle=orthogonalEdgeStyle;rounded=0;orthogonalLoop=1;jettySize=auto;html=1;entryX=0;entryY=0.5;entryDx=0;entryDy=0;elbow=vertical;" edge="1" parent="9wKzAW_y3rJNhs8JTTEz-51" source="RzD2ikqAWbtTkijuTP2i-2" target="9wKzAW_y3rJNhs8JTTEz-39">
          <mxGeometry relative="1" as="geometry" />
        </mxCell>
        <mxCell id="9wKzAW_y3rJNhs8JTTEz-44" value="&lt;p class=&quot;MsoNormal&quot;&gt;&lt;span style=&quot;font-size: 8pt;&quot;&gt;[[shall | will |&lt;br/&gt;may], reduce]&lt;/span&gt;&lt;/p&gt;" style="rounded=1;whiteSpace=wrap;html=1;shadow=0;sketch=0;" vertex="1" parent="9wKzAW_y3rJNhs8JTTEz-51">
          <mxGeometry x="340" y="85" width="120" height="40" as="geometry" />
        </mxCell>
        <mxCell id="9wKzAW_y3rJNhs8JTTEz-45" style="edgeStyle=orthogonalEdgeStyle;rounded=0;orthogonalLoop=1;jettySize=auto;html=1;elbow=vertical;" edge="1" parent="9wKzAW_y3rJNhs8JTTEz-51" source="RzD2ikqAWbtTkijuTP2i-2" target="9wKzAW_y3rJNhs8JTTEz-44">
          <mxGeometry relative="1" as="geometry" />
        </mxCell>
        <mxCell id="9wKzAW_y3rJNhs8JTTEz-48" value="&lt;p class=&quot;MsoNormal&quot;&gt;&lt;span style=&quot;font-size: 8pt;&quot;&gt;[Claims]&lt;/span&gt;&lt;/p&gt;" style="rounded=1;whiteSpace=wrap;html=1;fontSize=12;glass=0;strokeWidth=1;shadow=0;" vertex="1" parent="9wKzAW_y3rJNhs8JTTEz-51">
          <mxGeometry x="50" y="675" width="120" height="40" as="geometry" />
        </mxCell>
        <mxCell id="9wKzAW_y3rJNhs8JTTEz-49" value="&lt;p class=&quot;MsoNormal&quot;&gt;&lt;span style=&quot;font-size: 8pt;&quot;&gt;[shall be forfeited]&lt;/span&gt;&lt;/p&gt;" style="rounded=1;whiteSpace=wrap;html=1;shadow=0;sketch=0;" vertex="1" parent="9wKzAW_y3rJNhs8JTTEz-51">
          <mxGeometry x="340" y="680" width="120" height="30" as="geometry" />
        </mxCell>
        <mxCell id="9wKzAW_y3rJNhs8JTTEz-50" style="edgeStyle=orthogonalEdgeStyle;rounded=0;orthogonalLoop=1;jettySize=auto;html=1;entryX=0;entryY=0.5;entryDx=0;entryDy=0;elbow=vertical;" edge="1" parent="9wKzAW_y3rJNhs8JTTEz-51" source="9wKzAW_y3rJNhs8JTTEz-48" target="9wKzAW_y3rJNhs8JTTEz-49">
          <mxGeometry relative="1" as="geometry" />
        </mxCell>
        <mxCell id="9wKzAW_y3rJNhs8JTTEz-57" value="Insurer IS liable" style="swimlane;whiteSpace=wrap;html=1;rounded=0;shadow=0;sketch=0;" vertex="1" parent="1">
          <mxGeometry x="-90" y="800" width="890" height="1060" as="geometry">
            <mxRectangle x="-90" y="800" width="140" height="30" as="alternateBounds" />
          </mxGeometry>
        </mxCell>
        <mxCell id="9wKzAW_y3rJNhs8JTTEz-52" value="&lt;p class=&quot;MsoNormal&quot;&gt;&lt;span style=&quot;font-size: 8pt;&quot;&gt;[Insurer | &lt;b&gt;Company’s name &lt;/b&gt;| We]&lt;/span&gt;&lt;/p&gt;" style="rounded=1;whiteSpace=wrap;html=1;shadow=0;sketch=0;" vertex="1" parent="9wKzAW_y3rJNhs8JTTEz-57">
          <mxGeometry x="70" y="50" width="120" height="50" as="geometry" />
        </mxCell>
        <mxCell id="9wKzAW_y3rJNhs8JTTEz-53" value="&lt;p class=&quot;MsoNormal&quot;&gt;&lt;span style=&quot;font-size: 8pt;&quot;&gt;[[Insurer’s | &lt;b&gt;Company’s name’s &lt;/b&gt;| Our], liability]&lt;/span&gt;&lt;/p&gt;" style="rounded=1;whiteSpace=wrap;html=1;shadow=0;sketch=0;" vertex="1" parent="9wKzAW_y3rJNhs8JTTEz-57">
          <mxGeometry x="70" y="150" width="120" height="50" as="geometry" />
        </mxCell>
        <mxCell id="9wKzAW_y3rJNhs8JTTEz-54" value="&lt;p class=&quot;MsoNormal&quot;&gt;&lt;span style=&quot;font-size: 8pt;&quot;&gt;[[shall be | will&lt;br/&gt;be | is | will], [liable | provide cover | make payment | provide services |&lt;br/&gt;provide benefit | indemnify], for?]&lt;/span&gt;&lt;/p&gt;" style="rounded=1;whiteSpace=wrap;html=1;shadow=0;sketch=0;" vertex="1" parent="9wKzAW_y3rJNhs8JTTEz-57">
          <mxGeometry x="300" y="35" width="220" height="80" as="geometry" />
        </mxCell>
        <mxCell id="9wKzAW_y3rJNhs8JTTEz-58" style="edgeStyle=orthogonalEdgeStyle;rounded=0;orthogonalLoop=1;jettySize=auto;html=1;entryX=0;entryY=0.5;entryDx=0;entryDy=0;elbow=vertical;" edge="1" parent="9wKzAW_y3rJNhs8JTTEz-57" source="9wKzAW_y3rJNhs8JTTEz-52" target="9wKzAW_y3rJNhs8JTTEz-54">
          <mxGeometry relative="1" as="geometry" />
        </mxCell>
        <mxCell id="9wKzAW_y3rJNhs8JTTEz-55" value="&lt;p class=&quot;MsoNormal&quot;&gt;&lt;span style=&quot;font-size: 8pt;&quot;&gt;[losses | damages]&lt;/span&gt;&lt;/p&gt;" style="rounded=1;whiteSpace=wrap;html=1;shadow=0;sketch=0;" vertex="1" parent="9wKzAW_y3rJNhs8JTTEz-57">
          <mxGeometry x="590" y="55" width="120" height="40" as="geometry" />
        </mxCell>
        <mxCell id="9wKzAW_y3rJNhs8JTTEz-59" style="edgeStyle=orthogonalEdgeStyle;rounded=0;orthogonalLoop=1;jettySize=auto;html=1;entryX=0;entryY=0.5;entryDx=0;entryDy=0;elbow=vertical;" edge="1" parent="9wKzAW_y3rJNhs8JTTEz-57" source="9wKzAW_y3rJNhs8JTTEz-54" target="9wKzAW_y3rJNhs8JTTEz-55">
          <mxGeometry relative="1" as="geometry" />
        </mxCell>
        <mxCell id="9wKzAW_y3rJNhs8JTTEz-56" value="&lt;p class=&quot;MsoNormal&quot;&gt;&lt;span style=&quot;font-size: 8pt;&quot;&gt;[[shall not | will&lt;br/&gt;not], be limited]&lt;/span&gt;&lt;/p&gt;" style="rounded=1;whiteSpace=wrap;html=1;shadow=0;sketch=0;" vertex="1" parent="9wKzAW_y3rJNhs8JTTEz-57">
          <mxGeometry x="300" y="155" width="120" height="40" as="geometry" />
        </mxCell>
        <mxCell id="9wKzAW_y3rJNhs8JTTEz-60" style="edgeStyle=orthogonalEdgeStyle;rounded=0;orthogonalLoop=1;jettySize=auto;html=1;entryX=0;entryY=0.5;entryDx=0;entryDy=0;elbow=vertical;" edge="1" parent="9wKzAW_y3rJNhs8JTTEz-57" source="9wKzAW_y3rJNhs8JTTEz-53" target="9wKzAW_y3rJNhs8JTTEz-56">
          <mxGeometry relative="1" as="geometry" />
        </mxCell>
      </root>
    </mxGraphModel>
  </diagram>
</mxfile>
